<?xml version="1.0" encoding="UTF-8" standalone="no"?>
<!-- Created with Inkscape (http://www.inkscape.org/) -->

<svg
   xmlns:dc="http://purl.org/dc/elements/1.1/"
   xmlns:cc="http://creativecommons.org/ns#"
   xmlns:rdf="http://www.w3.org/1999/02/22-rdf-syntax-ns#"
   xmlns:svg="http://www.w3.org/2000/svg"
   xmlns="http://www.w3.org/2000/svg"
   xmlns:xlink="http://www.w3.org/1999/xlink"
   xmlns:sodipodi="http://sodipodi.sourceforge.net/DTD/sodipodi-0.dtd"
   xmlns:inkscape="http://www.inkscape.org/namespaces/inkscape"
   version="1.1"
   width="179.65625"
   height="23.71875"
   id="svg2985"
   inkscape:version="0.48.2 r9819"
   sodipodi:docname="chinchilla.svg"
   inkscape:export-filename="/Users/abrie/development/aa/cc/assets/chin.png"
   inkscape:export-xdpi="301.87827"
   inkscape:export-ydpi="301.87827">
  <sodipodi:namedview
     pagecolor="#ffffff"
     bordercolor="#666666"
     borderopacity="1"
     objecttolerance="10"
     gridtolerance="10"
     guidetolerance="10"
     inkscape:pageopacity="0"
     inkscape:pageshadow="2"
     inkscape:window-width="1253"
     inkscape:window-height="665"
     id="namedview3047"
     showgrid="false"
     fit-margin-top="0"
     fit-margin-left="0"
     fit-margin-right="0"
     fit-margin-bottom="0"
     inkscape:zoom="6.40625"
     inkscape:cx="88.823677"
     inkscape:cy="10.58373"
     inkscape:window-x="0"
     inkscape:window-y="0"
     inkscape:window-maximized="0"
     inkscape:current-layer="svg2985" />
  <defs
     id="defs2987">
    <linearGradient
       inkscape:collect="always"
       id="linearGradient3826">
      <stop
         style="stop-color:#000000;stop-opacity:1;"
         offset="0"
         id="stop3828" />
      <stop
         style="stop-color:#000000;stop-opacity:0;"
         offset="1"
         id="stop3830" />
    </linearGradient>
    <linearGradient
       inkscape:collect="always"
       xlink:href="#linearGradient3826"
       id="linearGradient3832"
       x1="4.098042"
       y1="15.97376"
       x2="8.0986881"
       y2="15.97376"
       gradientUnits="userSpaceOnUse"
       gradientTransform="translate(0.00618902,-0.66940722)" />
    <linearGradient
       inkscape:collect="always"
       xlink:href="#linearGradient3826"
       id="linearGradient3883"
       gradientUnits="userSpaceOnUse"
       gradientTransform="translate(0.00618902,-0.66940722)"
       x1="4.098042"
       y1="15.97376"
       x2="8.0986881"
       y2="15.97376" />
    <linearGradient
       inkscape:collect="always"
       xlink:href="#linearGradient3826"
       id="linearGradient3903"
       gradientUnits="userSpaceOnUse"
       gradientTransform="translate(0.00618902,-0.66940722)"
       x1="4.098042"
       y1="15.97376"
       x2="8.0986881"
       y2="15.97376" />
    <linearGradient
       inkscape:collect="always"
       xlink:href="#linearGradient3826"
       id="linearGradient3923"
       gradientUnits="userSpaceOnUse"
       gradientTransform="translate(0.00618902,-0.66940722)"
       x1="4.098042"
       y1="15.97376"
       x2="8.0986881"
       y2="15.97376" />
    <linearGradient
       inkscape:collect="always"
       xlink:href="#linearGradient3826"
       id="linearGradient3943"
       gradientUnits="userSpaceOnUse"
       gradientTransform="translate(0.00618902,-0.66940722)"
       x1="4.098042"
       y1="15.97376"
       x2="8.0986881"
       y2="15.97376" />
    <linearGradient
       inkscape:collect="always"
       xlink:href="#linearGradient3826"
       id="linearGradient3963"
       gradientUnits="userSpaceOnUse"
       gradientTransform="translate(0.00618902,-0.66940722)"
       x1="4.098042"
       y1="15.97376"
       x2="8.0986881"
       y2="15.97376" />
    <linearGradient
       inkscape:collect="always"
       xlink:href="#linearGradient3826"
       id="linearGradient3983"
       gradientUnits="userSpaceOnUse"
       gradientTransform="translate(0.00618902,-0.66940722)"
       x1="4.098042"
       y1="15.97376"
       x2="8.0986881"
       y2="15.97376" />
    <linearGradient
       inkscape:collect="always"
       xlink:href="#linearGradient3826"
       id="linearGradient4003"
       gradientUnits="userSpaceOnUse"
       gradientTransform="translate(0.00618902,-0.66940722)"
       x1="4.098042"
       y1="15.97376"
       x2="8.0986881"
       y2="15.97376" />
    <linearGradient
       inkscape:collect="always"
       xlink:href="#linearGradient3826"
       id="linearGradient4006"
       gradientUnits="userSpaceOnUse"
       gradientTransform="translate(0.00618902,-0.79440722)"
       x1="4.098042"
       y1="15.97376"
       x2="8.0986881"
       y2="15.97376" />
    <linearGradient
       inkscape:collect="always"
       xlink:href="#linearGradient3826"
       id="linearGradient4016"
       gradientUnits="userSpaceOnUse"
       gradientTransform="translate(29.898872,-0.79440722)"
       x1="4.098042"
       y1="15.97376"
       x2="8.0986881"
       y2="15.97376" />
    <linearGradient
       inkscape:collect="always"
       xlink:href="#linearGradient3826"
       id="linearGradient4026"
       gradientUnits="userSpaceOnUse"
       gradientTransform="translate(59.791555,-0.79440722)"
       x1="4.098042"
       y1="15.97376"
       x2="8.0986881"
       y2="15.97376" />
    <linearGradient
       inkscape:collect="always"
       xlink:href="#linearGradient3826"
       id="linearGradient4036"
       gradientUnits="userSpaceOnUse"
       gradientTransform="translate(89.684238,-0.79440722)"
       x1="4.098042"
       y1="15.97376"
       x2="8.0986881"
       y2="15.97376" />
    <linearGradient
       inkscape:collect="always"
       xlink:href="#linearGradient3826"
       id="linearGradient4046"
       gradientUnits="userSpaceOnUse"
       gradientTransform="translate(119.57692,-0.79440722)"
       x1="4.098042"
       y1="15.97376"
       x2="8.0986881"
       y2="15.97376" />
    <linearGradient
       inkscape:collect="always"
       xlink:href="#linearGradient3826"
       id="linearGradient4056"
       gradientUnits="userSpaceOnUse"
       gradientTransform="translate(149.46961,-0.79440722)"
       x1="4.098042"
       y1="15.97376"
       x2="8.0986881"
       y2="15.97376" />
  </defs>
  <metadata
     id="metadata2990">
    <rdf:RDF>
      <cc:Work
         rdf:about="">
        <dc:format>image/svg+xml</dc:format>
        <dc:type
           rdf:resource="http://purl.org/dc/dcmitype/StillImage" />
        <dc:title></dc:title>
      </cc:Work>
    </rdf:RDF>
  </metadata>
  <g
     id="g4065"
     style="display:none">
    <title
       id="title4073">black background</title>
    <rect
       y="0.15936136"
       x="0.15625"
       height="23.414635"
       width="29.892683"
       id="rect3857"
       style="fill:#000000;fill-opacity:1;stroke:#000000;stroke-width:0.30899999;stroke-linecap:butt;stroke-linejoin:miter;stroke-miterlimit:4;stroke-opacity:1;stroke-dasharray:none" />
    <rect
       style="fill:#000000;fill-opacity:1;stroke:#000000;stroke-width:0.30899999;stroke-linecap:butt;stroke-linejoin:miter;stroke-miterlimit:4;stroke-opacity:1;stroke-dasharray:none"
       id="rect3907"
       width="29.892683"
       height="23.414635"
       x="30.048933"
       y="0.15936136" />
    <rect
       style="fill:#000000;fill-opacity:1;stroke:#000000;stroke-width:0.30899999;stroke-linecap:butt;stroke-linejoin:miter;stroke-miterlimit:4;stroke-opacity:1;stroke-dasharray:none"
       id="rect3927"
       width="29.892683"
       height="23.414635"
       x="59.941616"
       y="0.15936136" />
    <rect
       style="fill:#000000;fill-opacity:1;stroke:#000000;stroke-width:0.30899999;stroke-linecap:butt;stroke-linejoin:miter;stroke-miterlimit:4;stroke-opacity:1;stroke-dasharray:none"
       id="rect3947"
       width="29.892683"
       height="23.414635"
       x="89.834297"
       y="0.15936136" />
    <rect
       style="fill:#000000;fill-opacity:1;stroke:#000000;stroke-width:0.30899999;stroke-linecap:butt;stroke-linejoin:miter;stroke-miterlimit:4;stroke-opacity:1;stroke-dasharray:none"
       id="rect3967"
       width="29.892683"
       height="23.414635"
       x="119.72698"
       y="0.15936136" />
    <rect
       style="fill:#000000;fill-opacity:1;stroke:#000000;stroke-width:0.30899999;stroke-linecap:butt;stroke-linejoin:miter;stroke-miterlimit:4;stroke-opacity:1;stroke-dasharray:none"
       id="rect3987"
       width="29.892683"
       height="23.414635"
       x="149.61967"
       y="0.15936136" />
  </g>
  <path
     inkscape:connector-curvature="0"
     style="fill:#8ca2a8;fill-opacity:1;stroke:#4c5469;stroke-width:0.273;stroke-linecap:butt;stroke-linejoin:miter;stroke-miterlimit:4.88333321;stroke-opacity:1;stroke-dasharray:none"
     id="path2993"
     d="m 16.422597,9.5732817 c -2.750544,-0.06101 -5.25,0.4687503 -5.25,0.4687503 l -4.4999997,-0.125 -0.34375,0.8125 c -2.4801074,0.144023 -7.10491683,0.618278 -5.81249991,1.96875 1.51867651,1.586896 2.71371631,2.489322 3.68749991,3 l -0.3125,0.78125 c 0,0 9.1373177,3.581334 14.0937497,3.25 2.053763,-0.13729 6.620498,-3.93781 5.25,-7.03125 -1.060954,-2.394747 -4.061956,-3.0639853 -6.8125,-3.1250003 z" />
  <path
     inkscape:connector-curvature="0"
     style="fill:#8ca2a8;fill-opacity:1;stroke:#4c5469;stroke-width:0.24513182;stroke-linecap:butt;stroke-linejoin:miter;stroke-miterlimit:4.88333321;stroke-opacity:1;stroke-dasharray:none"
     id="path3769"
     d="m 19.391957,15.810673 c -2.962121,0.570027 -5.007788,6.860955 -5.007788,6.860955 l 1.645874,0.820073 4.155009,-5.853663 c 0,0 -0.32953,-1.916572 -0.793134,-1.827351 z"
     inkscape:transform-center-x="1.4242041"
     inkscape:transform-center-y="2.1779287" />
  <path
     inkscape:connector-curvature="0"
     style="fill:#8ca2a8;fill-opacity:1;stroke:#4c5469;stroke-width:0.21694463;stroke-linecap:butt;stroke-linejoin:miter;stroke-miterlimit:4.88333321;stroke-opacity:1;stroke-dasharray:none"
     id="path3771"
     d="m 16.058138,23.543572 c 0,0 0.388686,-0.92907 0.0266,-1.220397 C 14.72818,21.231699 9.6461858,21.795258 9.6461858,21.795258 l -0.7651512,1.729764 z"
     inkscape:transform-center-x="2.4544911"
     inkscape:transform-center-y="-0.057007933" />
  <path
     inkscape:connector-curvature="0"
     style="fill:#8ca2a8;fill-opacity:1;stroke:#4c5469;stroke-width:0.273;stroke-miterlimit:4.88333321;stroke-opacity:1;stroke-dasharray:none"
     id="path3777"
     d="m 11.930881,7.5018777 a 2.9831107,3.92066 0 1 1 -5.9662205,0 2.9831107,3.92066 0 1 1 5.9662205,0 z" />
  <path
     inkscape:connector-curvature="0"
     style="fill:#8ca2a8;fill-opacity:1;stroke:#4c5469;stroke-width:0.25943974;stroke-linecap:butt;stroke-linejoin:miter;stroke-miterlimit:4.88333321;stroke-opacity:1;stroke-dasharray:none"
     id="path3779"
     d="M 22.038119,10.812907 24.663854,0.53551256 29.813583,2.9033927 z" />
  <path
     inkscape:connector-curvature="0"
     style="fill:#8ca2a8;fill-opacity:1;stroke:#4c5469;stroke-width:0.273;stroke-linecap:butt;stroke-linejoin:miter;stroke-miterlimit:4.88333321;stroke-opacity:1;stroke-dasharray:none"
     id="path3781"
     d="M 10.500663,17.722599 4.4906821,21.292556 3.4162519,21.150542 9.3580176,15.894363 z" />
  <path
     style="fill:none;stroke:url(#linearGradient4006);stroke-width:0.30899999;stroke-linecap:butt;stroke-linejoin:miter;stroke-miterlimit:4;stroke-opacity:1;stroke-dasharray:none"
     d="m 4.2087307,15.752399 c 1.6222944,0.385255 3.1202402,-0.998571 3.7916461,-1.213442"
     id="path3056"
     inkscape:connector-curvature="0" />
  <path
     d="m 46.31528,9.5732817 c -2.750544,-0.06101 -5.25,0.4687503 -5.25,0.4687503 l -4.5,-0.125 -0.34375,0.8125 c -2.480107,0.144023 -7.104917,0.618278 -5.8125,1.96875 1.518677,1.586896 2.713717,2.489322 3.6875,3 l -0.3125,0.78125 c 0,0 9.137318,3.581334 14.09375,3.25 2.053763,-0.13729 6.620498,-3.93781 5.25,-7.03125 -1.060954,-2.394747 -4.061956,-3.0639853 -6.8125,-3.1250003 z"
     id="path3909"
     style="fill:#8ca2a8;fill-opacity:1;stroke:#4c5469;stroke-width:0.273;stroke-linecap:butt;stroke-linejoin:miter;stroke-miterlimit:4.88333321;stroke-opacity:1;stroke-dasharray:none"
     inkscape:connector-curvature="0" />
  <path
     inkscape:transform-center-y="2.1779287"
     inkscape:transform-center-x="1.4242041"
     d="m 49.28464,15.810673 c -2.962121,0.570027 -5.007788,6.860955 -5.007788,6.860955 l 1.645874,0.820073 4.155009,-5.853663 c 0,0 -0.32953,-1.916572 -0.793134,-1.827351 z"
     id="path3911"
     style="fill:#8ca2a8;fill-opacity:1;stroke:#4c5469;stroke-width:0.24513182;stroke-linecap:butt;stroke-linejoin:miter;stroke-miterlimit:4.88333321;stroke-opacity:1;stroke-dasharray:none"
     inkscape:connector-curvature="0" />
  <path
     inkscape:transform-center-y="-0.057007933"
     inkscape:transform-center-x="2.4544911"
     d="m 45.950821,23.543572 c 0,0 0.388686,-0.92907 0.0266,-1.220397 -1.356558,-1.091476 -6.438552,-0.527917 -6.438552,-0.527917 l -0.765151,1.729764 z"
     id="path3913"
     style="fill:#8ca2a8;fill-opacity:1;stroke:#4c5469;stroke-width:0.21694463;stroke-linecap:butt;stroke-linejoin:miter;stroke-miterlimit:4.88333321;stroke-opacity:1;stroke-dasharray:none"
     inkscape:connector-curvature="0" />
  <path
     d="m 41.823564,7.5018777 a 2.9831107,3.92066 0 1 1 -5.966221,0 2.9831107,3.92066 0 1 1 5.966221,0 z"
     id="path3915"
     style="fill:#8ca2a8;fill-opacity:1;stroke:#4c5469;stroke-width:0.273;stroke-miterlimit:4.88333321;stroke-opacity:1;stroke-dasharray:none"
     inkscape:connector-curvature="0" />
  <path
     d="M 51.930802,10.812907 54.556537,0.53551256 59.706266,2.9033927 z"
     id="path3917"
     style="fill:#8ca2a8;fill-opacity:1;stroke:#4c5469;stroke-width:0.25943974;stroke-linecap:butt;stroke-linejoin:miter;stroke-miterlimit:4.88333321;stroke-opacity:1;stroke-dasharray:none"
     inkscape:connector-curvature="0" />
  <path
     d="m 40.393346,17.722599 -6.009981,3.569957 -1.07443,-0.142014 5.941766,-5.256179 z"
     id="path3919"
     style="fill:#8ca2a8;fill-opacity:1;stroke:#4c5469;stroke-width:0.273;stroke-linecap:butt;stroke-linejoin:miter;stroke-miterlimit:4.88333321;stroke-opacity:1;stroke-dasharray:none"
     inkscape:connector-curvature="0" />
  <path
     inkscape:connector-curvature="0"
     id="path3921"
     d="m 34.101414,15.752399 c 1.622294,0.385255 3.12024,-0.998571 3.791646,-1.213442"
     style="fill:none;stroke:url(#linearGradient4016);stroke-width:0.30899999;stroke-linecap:butt;stroke-linejoin:miter;stroke-miterlimit:4;stroke-opacity:1;stroke-dasharray:none" />
  <path
     d="m 76.207963,9.5732817 c -2.750544,-0.06101 -5.25,0.4687503 -5.25,0.4687503 l -4.5,-0.125 -0.34375,0.8125 c -2.480107,0.144023 -7.104917,0.618278 -5.8125,1.96875 1.518677,1.586896 2.713717,2.489322 3.6875,3 l -0.3125,0.78125 c 0,0 9.137318,3.581334 14.09375,3.25 2.053763,-0.13729 6.620498,-3.93781 5.25,-7.03125 -1.060954,-2.394747 -4.061956,-3.0639853 -6.8125,-3.1250003 z"
     id="path3929"
     style="fill:#8ca2a8;fill-opacity:1;stroke:#4c5469;stroke-width:0.273;stroke-linecap:butt;stroke-linejoin:miter;stroke-miterlimit:4.88333321;stroke-opacity:1;stroke-dasharray:none"
     inkscape:connector-curvature="0" />
  <path
     inkscape:transform-center-y="2.1779287"
     inkscape:transform-center-x="1.4242041"
     d="m 79.177323,15.810673 c -2.962121,0.570027 -5.007788,6.860955 -5.007788,6.860955 l 1.645874,0.820073 4.155009,-5.853663 c 0,0 -0.32953,-1.916572 -0.793134,-1.827351 z"
     id="path3931"
     style="fill:#8ca2a8;fill-opacity:1;stroke:#4c5469;stroke-width:0.24513182;stroke-linecap:butt;stroke-linejoin:miter;stroke-miterlimit:4.88333321;stroke-opacity:1;stroke-dasharray:none"
     inkscape:connector-curvature="0" />
  <path
     inkscape:transform-center-y="-0.057007933"
     inkscape:transform-center-x="2.4544911"
     d="m 75.843504,23.543572 c 0,0 0.388686,-0.92907 0.0266,-1.220397 -1.356558,-1.091476 -6.438552,-0.527917 -6.438552,-0.527917 l -0.765151,1.729764 z"
     id="path3933"
     style="fill:#8ca2a8;fill-opacity:1;stroke:#4c5469;stroke-width:0.21694463;stroke-linecap:butt;stroke-linejoin:miter;stroke-miterlimit:4.88333321;stroke-opacity:1;stroke-dasharray:none"
     inkscape:connector-curvature="0" />
  <path
     d="m 71.716247,7.5018777 a 2.9831107,3.92066 0 1 1 -5.96622,0 2.9831107,3.92066 0 1 1 5.96622,0 z"
     id="path3935"
     style="fill:#8ca2a8;fill-opacity:1;stroke:#4c5469;stroke-width:0.273;stroke-miterlimit:4.88333321;stroke-opacity:1;stroke-dasharray:none"
     inkscape:connector-curvature="0" />
  <path
     d="M 81.823485,10.812907 84.44922,0.53551256 89.598949,2.9033927 z"
     id="path3937"
     style="fill:#8ca2a8;fill-opacity:1;stroke:#4c5469;stroke-width:0.25943974;stroke-linecap:butt;stroke-linejoin:miter;stroke-miterlimit:4.88333321;stroke-opacity:1;stroke-dasharray:none"
     inkscape:connector-curvature="0" />
  <path
     d="m 70.286029,17.722599 -6.009981,3.569957 -1.07443,-0.142014 5.941766,-5.256179 z"
     id="path3939"
     style="fill:#8ca2a8;fill-opacity:1;stroke:#4c5469;stroke-width:0.273;stroke-linecap:butt;stroke-linejoin:miter;stroke-miterlimit:4.88333321;stroke-opacity:1;stroke-dasharray:none"
     inkscape:connector-curvature="0" />
  <path
     inkscape:connector-curvature="0"
     id="path3941"
     d="m 63.994097,15.752399 c 1.622294,0.385255 3.12024,-0.998571 3.791646,-1.213442"
     style="fill:none;stroke:url(#linearGradient4026);stroke-width:0.30899999;stroke-linecap:butt;stroke-linejoin:miter;stroke-miterlimit:4;stroke-opacity:1;stroke-dasharray:none" />
  <path
     d="m 106.10065,9.5732817 c -2.75055,-0.06101 -5.25,0.4687503 -5.25,0.4687503 l -4.500004,-0.125 -0.34375,0.8125 c -2.480107,0.144023 -7.104917,0.618278 -5.8125,1.96875 1.518677,1.586896 2.713717,2.489322 3.6875,3 l -0.3125,0.78125 c 0,0 9.137314,3.581334 14.093754,3.25 2.05376,-0.13729 6.62049,-3.93781 5.25,-7.03125 -1.06096,-2.394747 -4.06196,-3.0639853 -6.8125,-3.1250003 z"
     id="path3949"
     style="fill:#8ca2a8;fill-opacity:1;stroke:#4c5469;stroke-width:0.273;stroke-linecap:butt;stroke-linejoin:miter;stroke-miterlimit:4.88333321;stroke-opacity:1;stroke-dasharray:none"
     inkscape:connector-curvature="0" />
  <path
     inkscape:transform-center-y="2.1779287"
     inkscape:transform-center-x="1.4242041"
     d="m 109.07001,15.810673 c -2.96212,0.570027 -5.00779,6.860955 -5.00779,6.860955 l 1.64587,0.820073 4.15501,-5.853663 c 0,0 -0.32953,-1.916572 -0.79313,-1.827351 z"
     id="path3951"
     style="fill:#8ca2a8;fill-opacity:1;stroke:#4c5469;stroke-width:0.24513182;stroke-linecap:butt;stroke-linejoin:miter;stroke-miterlimit:4.88333321;stroke-opacity:1;stroke-dasharray:none"
     inkscape:connector-curvature="0" />
  <path
     inkscape:transform-center-y="-0.057007933"
     inkscape:transform-center-x="2.4544911"
     d="m 105.73619,23.543572 c 0,0 0.38868,-0.92907 0.0266,-1.220397 -1.35656,-1.091476 -6.438555,-0.527917 -6.438555,-0.527917 l -0.765151,1.729764 z"
     id="path3953"
     style="fill:#8ca2a8;fill-opacity:1;stroke:#4c5469;stroke-width:0.21694463;stroke-linecap:butt;stroke-linejoin:miter;stroke-miterlimit:4.88333321;stroke-opacity:1;stroke-dasharray:none"
     inkscape:connector-curvature="0" />
  <path
     d="m 101.60893,7.5018777 a 2.9831107,3.92066 0 1 1 -5.966221,0 2.9831107,3.92066 0 1 1 5.966221,0 z"
     id="path3955"
     style="fill:#8ca2a8;fill-opacity:1;stroke:#4c5469;stroke-width:0.273;stroke-miterlimit:4.88333321;stroke-opacity:1;stroke-dasharray:none"
     inkscape:connector-curvature="0" />
  <path
     d="M 111.71617,10.812907 114.3419,0.53551256 119.49163,2.9033927 z"
     id="path3957"
     style="fill:#8ca2a8;fill-opacity:1;stroke:#4c5469;stroke-width:0.25943974;stroke-linecap:butt;stroke-linejoin:miter;stroke-miterlimit:4.88333321;stroke-opacity:1;stroke-dasharray:none"
     inkscape:connector-curvature="0" />
  <path
     d="m 100.17871,17.722599 -6.009979,3.569957 -1.07443,-0.142014 5.941766,-5.256179 z"
     id="path3959"
     style="fill:#8ca2a8;fill-opacity:1;stroke:#4c5469;stroke-width:0.273;stroke-linecap:butt;stroke-linejoin:miter;stroke-miterlimit:4.88333321;stroke-opacity:1;stroke-dasharray:none"
     inkscape:connector-curvature="0" />
  <path
     inkscape:connector-curvature="0"
     id="path3961"
     d="m 93.88678,15.752399 c 1.622294,0.385255 3.12024,-0.998571 3.791646,-1.213442"
     style="fill:none;stroke:url(#linearGradient4036);stroke-width:0.30899999;stroke-linecap:butt;stroke-linejoin:miter;stroke-miterlimit:4;stroke-opacity:1;stroke-dasharray:none" />
  <path
     d="m 135.99333,9.5732817 c -2.75055,-0.06101 -5.25,0.4687503 -5.25,0.4687503 l -4.5,-0.125 -0.34375,0.8125 c -2.48011,0.144023 -7.10492,0.618278 -5.8125,1.96875 1.51867,1.586896 2.71371,2.489322 3.6875,3 l -0.3125,0.78125 c 0,0 9.13731,3.581334 14.09375,3.25 2.05376,-0.13729 6.62049,-3.93781 5.25,-7.03125 -1.06096,-2.394747 -4.06196,-3.0639853 -6.8125,-3.1250003 z"
     id="path3969"
     style="fill:#8ca2a8;fill-opacity:1;stroke:#4c5469;stroke-width:0.273;stroke-linecap:butt;stroke-linejoin:miter;stroke-miterlimit:4.88333321;stroke-opacity:1;stroke-dasharray:none"
     inkscape:connector-curvature="0" />
  <path
     inkscape:transform-center-y="2.1779287"
     inkscape:transform-center-x="1.4242041"
     d="m 138.96269,15.810673 c -2.96212,0.570027 -5.00779,6.860955 -5.00779,6.860955 l 1.64587,0.820073 4.15501,-5.853663 c 0,0 -0.32953,-1.916572 -0.79313,-1.827351 z"
     id="path3971"
     style="fill:#8ca2a8;fill-opacity:1;stroke:#4c5469;stroke-width:0.24513182;stroke-linecap:butt;stroke-linejoin:miter;stroke-miterlimit:4.88333321;stroke-opacity:1;stroke-dasharray:none"
     inkscape:connector-curvature="0" />
  <path
     inkscape:transform-center-y="-0.057007933"
     inkscape:transform-center-x="2.4544911"
     d="m 135.62887,23.543572 c 0,0 0.38868,-0.92907 0.0266,-1.220397 -1.35656,-1.091476 -6.43855,-0.527917 -6.43855,-0.527917 l -0.76516,1.729764 z"
     id="path3973"
     style="fill:#8ca2a8;fill-opacity:1;stroke:#4c5469;stroke-width:0.21694463;stroke-linecap:butt;stroke-linejoin:miter;stroke-miterlimit:4.88333321;stroke-opacity:1;stroke-dasharray:none"
     inkscape:connector-curvature="0" />
  <path
     d="m 131.50161,7.5018777 a 2.9831107,3.92066 0 1 1 -5.96622,0 2.9831107,3.92066 0 1 1 5.96622,0 z"
     id="path3975"
     style="fill:#8ca2a8;fill-opacity:1;stroke:#4c5469;stroke-width:0.273;stroke-miterlimit:4.88333321;stroke-opacity:1;stroke-dasharray:none"
     inkscape:connector-curvature="0" />
  <path
     d="m 141.60885,10.812907 2.62573,-10.27739444 5.14973,2.36788014 z"
     id="path3977"
     style="fill:#8ca2a8;fill-opacity:1;stroke:#4c5469;stroke-width:0.25943974;stroke-linecap:butt;stroke-linejoin:miter;stroke-miterlimit:4.88333321;stroke-opacity:1;stroke-dasharray:none"
     inkscape:connector-curvature="0" />
  <path
     d="m 130.07139,17.722599 -6.00998,3.569957 -1.07443,-0.142014 5.94177,-5.256179 z"
     id="path3979"
     style="fill:#8ca2a8;fill-opacity:1;stroke:#4c5469;stroke-width:0.273;stroke-linecap:butt;stroke-linejoin:miter;stroke-miterlimit:4.88333321;stroke-opacity:1;stroke-dasharray:none"
     inkscape:connector-curvature="0" />
  <path
     inkscape:connector-curvature="0"
     id="path3981"
     d="m 123.77946,15.752399 c 1.6223,0.385255 3.12024,-0.998571 3.79165,-1.213442"
     style="fill:none;stroke:url(#linearGradient4046);stroke-width:0.30899999;stroke-linecap:butt;stroke-linejoin:miter;stroke-miterlimit:4;stroke-opacity:1;stroke-dasharray:none" />
  <path
     d="m 165.88602,9.5732817 c -2.75055,-0.06101 -5.25,0.4687503 -5.25,0.4687503 l -4.5,-0.125 -0.34375,0.8125 c -2.48011,0.144023 -7.10492,0.618278 -5.8125,1.96875 1.51867,1.586896 2.71371,2.489322 3.6875,3 l -0.3125,0.78125 c 0,0 9.13731,3.581334 14.09375,3.25 2.05376,-0.13729 6.62049,-3.93781 5.25,-7.03125 -1.06096,-2.394747 -4.06196,-3.0639853 -6.8125,-3.1250003 z"
     id="path3989"
     style="fill:#8ca2a8;fill-opacity:1;stroke:#4c5469;stroke-width:0.273;stroke-linecap:butt;stroke-linejoin:miter;stroke-miterlimit:4.88333321;stroke-opacity:1;stroke-dasharray:none"
     inkscape:connector-curvature="0" />
  <path
     inkscape:transform-center-y="2.1779287"
     inkscape:transform-center-x="1.4242041"
     d="m 168.85538,15.810673 c -2.96212,0.570027 -5.00779,6.860955 -5.00779,6.860955 l 1.64587,0.820073 4.15501,-5.853663 c 0,0 -0.32953,-1.916572 -0.79313,-1.827351 z"
     id="path3991"
     style="fill:#8ca2a8;fill-opacity:1;stroke:#4c5469;stroke-width:0.24513182;stroke-linecap:butt;stroke-linejoin:miter;stroke-miterlimit:4.88333321;stroke-opacity:1;stroke-dasharray:none"
     inkscape:connector-curvature="0" />
  <path
     inkscape:transform-center-y="-0.057007933"
     inkscape:transform-center-x="2.4544911"
     d="m 165.52156,23.543572 c 0,0 0.38868,-0.92907 0.0266,-1.220397 -1.35656,-1.091476 -6.43855,-0.527917 -6.43855,-0.527917 l -0.76516,1.729764 z"
     id="path3993"
     style="fill:#8ca2a8;fill-opacity:1;stroke:#4c5469;stroke-width:0.21694463;stroke-linecap:butt;stroke-linejoin:miter;stroke-miterlimit:4.88333321;stroke-opacity:1;stroke-dasharray:none"
     inkscape:connector-curvature="0" />
  <path
     d="m 161.3943,7.5018777 a 2.9831107,3.92066 0 1 1 -5.96622,0 2.9831107,3.92066 0 1 1 5.96622,0 z"
     id="path3995"
     style="fill:#8ca2a8;fill-opacity:1;stroke:#4c5469;stroke-width:0.273;stroke-miterlimit:4.88333321;stroke-opacity:1;stroke-dasharray:none"
     inkscape:connector-curvature="0" />
  <path
     d="M 171.50154,10.812907 174.12727,0.53551256 179.277,2.9033927 z"
     id="path3997"
     style="fill:#8ca2a8;fill-opacity:1;stroke:#4c5469;stroke-width:0.25943974;stroke-linecap:butt;stroke-linejoin:miter;stroke-miterlimit:4.88333321;stroke-opacity:1;stroke-dasharray:none"
     inkscape:connector-curvature="0" />
  <path
     d="m 159.96408,17.722599 -6.00998,3.569957 -1.07443,-0.142014 5.94177,-5.256179 z"
     id="path3999"
     style="fill:#8ca2a8;fill-opacity:1;stroke:#4c5469;stroke-width:0.273;stroke-linecap:butt;stroke-linejoin:miter;stroke-miterlimit:4.88333321;stroke-opacity:1;stroke-dasharray:none"
     inkscape:connector-curvature="0" />
  <path
     inkscape:connector-curvature="0"
     id="path4001"
     d="m 153.67215,15.752399 c 1.6223,0.385255 3.12024,-0.998571 3.79165,-1.213442"
     style="fill:none;stroke:url(#linearGradient4056);stroke-width:0.30899999;stroke-linecap:butt;stroke-linejoin:miter;stroke-miterlimit:4;stroke-opacity:1;stroke-dasharray:none" />
</svg>
