<?xml version="1.0" encoding="UTF-8" standalone="no"?>
<!-- Created with Inkscape (http://www.inkscape.org/) -->

<svg
   xmlns:dc="http://purl.org/dc/elements/1.1/"
   xmlns:cc="http://creativecommons.org/ns#"
   xmlns:rdf="http://www.w3.org/1999/02/22-rdf-syntax-ns#"
   xmlns:svg="http://www.w3.org/2000/svg"
   xmlns="http://www.w3.org/2000/svg"
   xmlns:sodipodi="http://sodipodi.sourceforge.net/DTD/sodipodi-0.dtd"
   xmlns:inkscape="http://www.inkscape.org/namespaces/inkscape"
   width="150"
   height="100"
   id="svg5880"
   version="1.1"
   inkscape:version="0.48.2 r9819"
   sodipodi:docname="chinchilla-v3.svg">
  <defs
     id="defs5882" />
  <sodipodi:namedview
     id="base"
     pagecolor="#ffffff"
     bordercolor="#666666"
     borderopacity="1.0"
     inkscape:pageopacity="0.0"
     inkscape:pageshadow="2"
     inkscape:zoom="1.979899"
     inkscape:cx="81.976248"
     inkscape:cy="42.084879"
     inkscape:document-units="px"
     inkscape:current-layer="layer1"
     showgrid="false"
     inkscape:window-width="1195"
     inkscape:window-height="666"
     inkscape:window-x="90"
     inkscape:window-y="23"
     inkscape:window-maximized="0" />
  <metadata
     id="metadata5885">
    <rdf:RDF>
      <cc:Work
         rdf:about="">
        <dc:format>image/svg+xml</dc:format>
        <dc:type
           rdf:resource="http://purl.org/dc/dcmitype/StillImage" />
        <dc:title></dc:title>
      </cc:Work>
    </rdf:RDF>
  </metadata>
  <g
     inkscape:label="Layer 1"
     inkscape:groupmode="layer"
     id="layer1"
     transform="translate(0,-952.36217)">
    <g
       id="g7484">
      <g
         id="g7415">
        <path
           inkscape:transform-center-y="-1.906159"
           inkscape:transform-center-x="9.1458"
           sodipodi:nodetypes="cssscczc"
           inkscape:connector-curvature="0"
           id="path7041"
           d="m 46.147343,986.82731 c 0.858276,-5.88449 4.413416,-1.50569 9.200012,-3.57976 5.38547,-2.33381 3.173728,-2.26458 8.347945,-3.09891 2.791926,-0.45017 4.022257,-6.23131 7.24695,-4.29855 3.224687,1.93275 13.426247,2.26574 13.426247,2.26574 -2.700505,24.94477 -7.25627,17.9608 -11.853389,18.8022 -7.679791,1.5509 -27.22603,-4.20617 -26.367757,-10.0907 z"
           style="fill:#708b8d;fill-opacity:1;stroke:#e7f7fb;stroke-width:2;stroke-linecap:butt;stroke-linejoin:miter;stroke-opacity:1;stroke-miterlimit:4;stroke-dasharray:none" />
        <path
           inkscape:transform-center-y="2.2274599"
           inkscape:transform-center-x="-22.322302"
           sodipodi:nodetypes="cacccscc"
           inkscape:connector-curvature="0"
           id="path7043"
           d="m 77.825227,1035.9434 c 0,0 13.000695,5.4252 19.892101,5.7723 8.740862,0.4401 25.796362,-4.7517 25.796362,-4.7517 l 8.5191,-1.2985 -10.02972,9.365 c 0,0 -26.910221,1.7277 -35.307015,-2.3499 -3.130241,-1.5209 -9.157545,-5.7103 -9.157545,-5.7103 z"
           style="fill:#708b8d;fill-opacity:1;stroke:#e7f7fb;stroke-width:2;stroke-linecap:butt;stroke-linejoin:miter;stroke-opacity:1;stroke-miterlimit:4;stroke-dasharray:none" />
        <path
           sodipodi:nodetypes="cscsc"
           inkscape:connector-curvature="0"
           id="path7045"
           d="m 83.689946,986.65183 c 0,0 -10.490819,-11.55984 -18.268029,-2.36401 -10.232262,12.09893 -6.676558,60.25518 -6.676558,60.25518 0,0 21.813303,0.6544 25.607561,-10.2831 5.387095,-15.529 -0.662974,-47.60807 -0.662974,-47.60807 z"
           style="fill:#708b8d;fill-opacity:1;stroke:#e7f7fb;stroke-width:2;stroke-linecap:butt;stroke-linejoin:miter;stroke-opacity:1;stroke-miterlimit:4;stroke-dasharray:none"
           inkscape:transform-center-x="-0.10918725"
           inkscape:transform-center-y="-7.8412316" />
        <path
           sodipodi:nodetypes="cscsc"
           inkscape:connector-curvature="0"
           id="path7047"
           d="m 73.517906,1019.6462 c 0,0 -3.39645,12.2878 -4.42682,21.0526 -0.39831,3.388 5.92393,3.4834 5.92393,3.4834 0,0 4.68526,-13.6904 2.06761,-20.9502 -0.6179,-1.7143 -3.56472,-3.5858 -3.56472,-3.5858 z"
           style="fill:#708b8d;fill-opacity:1;stroke:#e7f7fb;stroke-width:2;stroke-linecap:butt;stroke-linejoin:miter;stroke-opacity:1;stroke-miterlimit:4;stroke-dasharray:none"
           inkscape:transform-center-x="1.3792612"
           inkscape:transform-center-y="6.6500795" />
        <path
           sodipodi:nodetypes="szcss"
           inkscape:connector-curvature="0"
           id="path7049"
           d="m 76.19822,1041.7141 c 0.63704,1.1748 2.90576,0.8508 -2.355,3.4489 -5.26075,2.5981 -26.10468,0.832 -26.10468,0.832 0,0 4.5727,-5.2543 7.80493,-4.3613 12.57435,3.474 18.23828,-4.3761 20.65475,0.081 z"
           style="fill:#708b8d;fill-opacity:1;stroke:#e7f7fb;stroke-width:2;stroke-linecap:butt;stroke-linejoin:miter;stroke-opacity:1;stroke-miterlimit:4;stroke-dasharray:none"
           inkscape:transform-center-x="8.4613404"
           inkscape:transform-center-y="1.439001" />
        <path
           inkscape:transform-center-y="7.4604458"
           inkscape:transform-center-x="4.6552988"
           sodipodi:nodetypes="ccscsc"
           inkscape:connector-curvature="0"
           id="path7051"
           d="m 63.21382,1001.9284 c -6.017242,2.6076 -13.256206,21.2022 -13.256206,21.2022 0,0 2.670465,0.6461 3.288252,-0.4018 6.310897,-10.7048 15.651992,-17.6471 15.651992,-17.6471 0,0 -1.997385,-4.7506 -5.684185,-3.1529 z"
           style="fill:#708b8d;fill-opacity:1;stroke:#e7f7fb;stroke-width:2;stroke-linecap:butt;stroke-linejoin:miter;stroke-opacity:1;stroke-miterlimit:4;stroke-dasharray:none" />
        <path
           inkscape:transform-center-y="-21.369004"
           inkscape:transform-center-x="-9.787777"
           transform="matrix(0.57708689,0.18131169,-0.29207347,0.7818315,53.925906,946.85086)"
           d="m 69.700527,21.46064 a 14.142136,15.404826 0 1 1 -28.284271,0 14.142136,15.404826 0 1 1 28.284271,0 z"
           sodipodi:ry="15.404826"
           sodipodi:rx="14.142136"
           sodipodi:cy="21.46064"
           sodipodi:cx="55.558392"
           id="path7053"
           style="fill:#708b8d;fill-opacity:1;fill-rule:nonzero;stroke:#e7f7fb;stroke-width:2.81678673999999996;stroke-linecap:round;stroke-linejoin:miter;stroke-miterlimit:4;stroke-opacity:1;stroke-dasharray:none"
           sodipodi:type="arc" />
      </g>
      <rect
         style="fill:#bcc0d4;fill-opacity:0;fill-rule:nonzero;stroke:#d53126;stroke-width:0.49875468;stroke-linecap:round;stroke-linejoin:miter;stroke-miterlimit:4;stroke-opacity:1;stroke-dasharray:none"
         id="rect7055"
         width="150"
         height="99.502487"
         x="0.25"
         y="952.61096" />
    </g>
    <path
       style="fill:none;stroke:#000000;stroke-width:1.11836946px;stroke-linecap:butt;stroke-linejoin:miter;stroke-opacity:1"
       d="m -171.30329,1048.5859 833.08901,0"
       id="path7117"
       inkscape:connector-curvature="0" />
    <g
       id="g7473">
      <g
         id="g7424">
        <path
           style="fill:#708b8d;fill-opacity:1;stroke:#e7f7fb;stroke-width:2;stroke-linecap:butt;stroke-linejoin:miter;stroke-opacity:1;stroke-miterlimit:4;stroke-dasharray:none"
           d="m 170.26269,1017.9417 c 0.47702,-5.9274 4.29334,-1.7859 8.92146,-4.1632 5.20717,-2.6748 3.01173,-2.4637 8.10476,-3.6286 2.74811,-0.6285 -0.91946,-6.1848 2.41162,-4.4631 3.33107,1.7217 18.02042,1.1069 18.02042,1.1069 -1.08939,25.0668 -6.0677,18.3897 -10.58628,19.5246 -7.53927,2.0409 -27.349,-2.449 -26.87198,-8.3766 z"
           id="path7144"
           inkscape:connector-curvature="0"
           sodipodi:nodetypes="zsssccz"
           inkscape:transform-center-x="9.4879945"
           inkscape:transform-center-y="-1.4507414" />
        <path
           style="fill:#708b8d;fill-opacity:1;stroke:#e7f7fb;stroke-width:2;stroke-linecap:butt;stroke-linejoin:miter;stroke-opacity:1;stroke-miterlimit:4;stroke-dasharray:none"
           d="m 245.08137,1030.538 c 0,0 14.02984,-0.551 20.4059,-3.137 8.08717,-3.28 21.32879,-15.1685 21.32879,-15.1685 l 7.15726,-4.7638 -5.1389,12.7168 c 0,0 -23.60441,12.8943 -32.90655,12.73 -3.46808,-0.062 -10.67489,-1.3252 -10.67489,-1.3252 z"
           id="path7146"
           inkscape:connector-curvature="0"
           sodipodi:nodetypes="cacccscc"
           inkscape:transform-center-x="-19.327097"
           inkscape:transform-center-y="-10.532671" />
        <path
           style="fill:#708b8d;fill-opacity:1;stroke:#e7f7fb;stroke-width:2;stroke-linecap:butt;stroke-linejoin:miter;stroke-opacity:1;stroke-miterlimit:4;stroke-dasharray:none"
           d="m 195.80329,1007.6478 c 0,0 -11.94829,9.9988 -3.11477,18.1533 11.62225,10.7289 59.72499,9.1881 59.72499,9.1881 0,0 1.56001,-21.7669 -9.17375,-26.0148 -15.23974,-6.0312 -47.43647,-1.3266 -47.43647,-1.3266 z"
           id="path7148"
           inkscape:connector-curvature="0"
           sodipodi:nodetypes="cscsc" />
        <path
           inkscape:transform-center-y="6.6500795"
           inkscape:transform-center-x="1.3792612"
           style="fill:#708b8d;fill-opacity:1;stroke:#e7f7fb;stroke-width:2;stroke-linecap:butt;stroke-linejoin:miter;stroke-opacity:1;stroke-miterlimit:4;stroke-dasharray:none"
           d="m 240.8451,1019.6456 c 0,0 -3.3852,12.2878 -4.41215,21.0525 -0.39699,3.3881 5.9043,3.4834 5.9043,3.4834 0,0 4.66973,-13.6903 2.06076,-20.9501 -0.61586,-1.7144 -3.55291,-3.5858 -3.55291,-3.5858 z"
           id="path7150"
           inkscape:connector-curvature="0"
           sodipodi:nodetypes="cscsc" />
        <path
           inkscape:transform-center-y="1.439001"
           inkscape:transform-center-x="8.4613404"
           style="fill:#708b8d;fill-opacity:1;stroke:#e7f7fb;stroke-width:2;stroke-linecap:butt;stroke-linejoin:miter;stroke-opacity:1;stroke-miterlimit:4;stroke-dasharray:none"
           d="m 243.51653,1041.7135 c 0.63493,1.1748 2.89613,0.8507 -2.3472,3.4488 -5.24331,2.5981 -26.01816,0.8321 -26.01816,0.8321 0,0 4.55754,-5.2544 7.77906,-4.3613 12.53268,3.474 18.17784,-4.3762 20.5863,0.081 z"
           id="path7152"
           inkscape:connector-curvature="0"
           sodipodi:nodetypes="szcss" />
        <path
           style="fill:#708b8d;fill-opacity:1;stroke:#e7f7fb;stroke-width:2;stroke-linecap:butt;stroke-linejoin:miter;stroke-opacity:1;stroke-miterlimit:4;stroke-dasharray:none"
           d="m 214.15986,1025.6172 c -6.15066,2.2191 -14.53145,20.3149 -14.53145,20.3149 0,0 2.61519,0.8149 3.29621,-0.1917 6.9568,-10.2811 16.68876,-16.6142 16.68876,-16.6142 0,0 -1.68514,-4.8683 -5.45369,-3.5086 z"
           id="path7154"
           inkscape:connector-curvature="0"
           sodipodi:nodetypes="ccscsc"
           inkscape:transform-center-x="5.2256383"
           inkscape:transform-center-y="7.0692213" />
        <path
           sodipodi:type="arc"
           style="fill:#708b8d;fill-opacity:1;fill-rule:nonzero;stroke:#e7f7fb;stroke-width:2.82146578000000003;stroke-linecap:round;stroke-linejoin:miter;stroke-miterlimit:4;stroke-opacity:1;stroke-dasharray:none"
           id="path7156"
           sodipodi:cx="55.558392"
           sodipodi:cy="21.46064"
           sodipodi:rx="14.142136"
           sodipodi:ry="15.404826"
           d="m 69.700527,21.46064 a 14.142136,15.404826 0 1 1 -28.284271,0 14.142136,15.404826 0 1 1 28.284271,0 z"
           transform="matrix(0.5794157,0.16716571,-0.27199041,0.78873053,170.90211,971.01508)"
           inkscape:transform-center-x="-9.2630476"
           inkscape:transform-center-y="-21.601634" />
      </g>
      <rect
         y="952.61029"
         x="157.24855"
         height="99.502487"
         width="149.5029"
         id="rect7158"
         style="fill:#bcc0d4;fill-opacity:0;fill-rule:nonzero;stroke:#d53126;stroke-width:0.49792755;stroke-linecap:round;stroke-linejoin:miter;stroke-miterlimit:4;stroke-opacity:1;stroke-dasharray:none" />
    </g>
    <g
       id="g7462">
      <g
         id="g7433">
        <path
           inkscape:transform-center-y="-1.4507414"
           inkscape:transform-center-x="9.4879945"
           sodipodi:nodetypes="zsssccz"
           inkscape:connector-curvature="0"
           id="path7190"
           d="m 323.26312,1013.9015 c 0.47702,-5.9274 4.29335,-1.7859 8.92148,-4.1632 5.20717,-2.6748 3.01173,-2.4636 8.10476,-3.6285 2.74812,-0.6286 -0.91946,-6.18487 2.41163,-4.4632 3.33107,1.7217 18.02044,1.107 18.02044,1.107 -1.08939,25.0667 -6.06771,18.3896 -10.58629,19.5245 -7.53928,2.0409 -27.34904,-2.449 -26.87202,-8.3766 z"
           style="fill:#708b8d;fill-opacity:1;stroke:#e7f7fb;stroke-width:2;stroke-linecap:butt;stroke-linejoin:miter;stroke-opacity:1;stroke-miterlimit:4;stroke-dasharray:none" />
        <path
           inkscape:transform-center-y="-10.532671"
           inkscape:transform-center-x="-19.327097"
           sodipodi:nodetypes="cacccscc"
           inkscape:connector-curvature="0"
           id="path7192"
           d="m 398.08189,1026.4978 c 0,0 14.02986,-0.551 20.40593,-3.137 8.08718,-3.28 21.32881,-15.1685 21.32881,-15.1685 l 7.15727,-4.7638 -5.1389,12.7168 c 0,0 -23.60444,12.8943 -32.90659,12.73 -3.46809,-0.062 -10.67491,-1.3252 -10.67491,-1.3252 z"
           style="fill:#708b8d;fill-opacity:1;stroke:#e7f7fb;stroke-width:2;stroke-linecap:butt;stroke-linejoin:miter;stroke-opacity:1;stroke-miterlimit:4;stroke-dasharray:none" />
        <path
           sodipodi:nodetypes="cscsc"
           inkscape:connector-curvature="0"
           id="path7194"
           d="m 348.80375,1003.6076 c 0,0 -11.9483,9.9988 -3.11477,18.1533 11.62227,10.7289 59.72506,9.1881 59.72506,9.1881 0,0 1.56001,-21.7669 -9.17376,-26.0148 -15.23976,-6.03118 -47.43653,-1.3266 -47.43653,-1.3266 z"
           style="fill:#708b8d;fill-opacity:1;stroke:#e7f7fb;stroke-width:2;stroke-linecap:butt;stroke-linejoin:miter;stroke-opacity:1;stroke-miterlimit:4;stroke-dasharray:none" />
        <path
           sodipodi:nodetypes="cscsc"
           inkscape:connector-curvature="0"
           id="path7196"
           d="m 390.35505,1018.054 c 0,0 5.96938,11.2613 11.23667,18.3416 2.03612,2.737 6.68518,-1.5176 6.68518,-1.5176 0,0 -5.99738,-13.163 -12.87685,-16.6536 -1.6244,-0.8245 -5.045,-0.1704 -5.045,-0.1704 z"
           style="fill:#708b8d;fill-opacity:1;stroke:#e7f7fb;stroke-width:2;stroke-linecap:butt;stroke-linejoin:miter;stroke-opacity:1;stroke-miterlimit:4;stroke-dasharray:none"
           inkscape:transform-center-x="-4.133558"
           inkscape:transform-center-y="6.3375257" />
        <path
           sodipodi:nodetypes="szcss"
           inkscape:connector-curvature="0"
           id="path7198"
           d="m 407.72748,1032.3906 c 0.99551,0.8901 3.01306,-0.1811 -1.03946,4.0402 -4.0525,4.2214 -24.19641,9.6007 -24.19641,9.6007 0,0 2.50706,-6.488 5.84062,-6.7396 12.96836,-0.979 15.61894,-10.2779 19.39545,-6.9007 z"
           style="fill:#708b8d;fill-opacity:1;stroke:#e7f7fb;stroke-width:2;stroke-linecap:butt;stroke-linejoin:miter;stroke-opacity:1;stroke-miterlimit:4;stroke-dasharray:none"
           inkscape:transform-center-x="7.123188"
           inkscape:transform-center-y="4.4161179" />
        <path
           inkscape:transform-center-y="8.4425489"
           inkscape:transform-center-x="-3.6705175"
           sodipodi:nodetypes="ccscsc"
           inkscape:connector-curvature="0"
           id="path7200"
           d="m 364.72581,1024.0007 c -0.59339,6.5118 12.25293,21.7653 12.25293,21.7653 0,0 1.84539,-2.0243 1.22175,-3.0675 -6.36927,-10.655 -7.98693,-22.153 -7.98693,-22.153 0,0 -5.12392,-0.5342 -5.48746,3.4556 z"
           style="fill:#708b8d;fill-opacity:1;stroke:#e7f7fb;stroke-width:2;stroke-linecap:butt;stroke-linejoin:miter;stroke-opacity:1;stroke-miterlimit:4;stroke-dasharray:none" />
        <path
           inkscape:transform-center-y="-21.601634"
           inkscape:transform-center-x="-9.2630476"
           transform="matrix(0.5794164,0.16716571,-0.27199074,0.78873053,323.90255,966.9749)"
           d="m 69.700527,21.46064 a 14.142136,15.404826 0 1 1 -28.284271,0 14.142136,15.404826 0 1 1 28.284271,0 z"
           sodipodi:ry="15.404826"
           sodipodi:rx="14.142136"
           sodipodi:cy="21.46064"
           sodipodi:cx="55.558392"
           id="path7202"
           style="fill:#708b8d;fill-opacity:1;fill-rule:nonzero;stroke:#e7f7fb;stroke-width:2.82146408000000015;stroke-linecap:round;stroke-linejoin:miter;stroke-miterlimit:4;stroke-opacity:1;stroke-dasharray:none"
           sodipodi:type="arc" />
      </g>
      <rect
         style="fill:#bcc0d4;fill-opacity:0;fill-rule:nonzero;stroke:#d53126;stroke-width:0.49792784;stroke-linecap:round;stroke-linejoin:miter;stroke-miterlimit:4;stroke-opacity:1;stroke-dasharray:none"
         id="rect7204"
         width="149.50308"
         height="99.502487"
         x="310.24896"
         y="952.61072" />
    </g>
    <g
       id="g7451">
      <g
         id="g7442">
        <path
           style="fill:#708b8d;fill-opacity:1;stroke:#e7f7fb;stroke-width:2;stroke-linecap:butt;stroke-linejoin:miter;stroke-opacity:1;stroke-miterlimit:4;stroke-dasharray:none"
           d="m 474.26312,1009.8609 c 0.47702,-5.9274 4.29335,-1.7859 8.92148,-4.1632 5.20717,-2.6748 3.01173,-2.4637 8.10476,-3.6285 2.74812,-0.6286 -0.91946,-6.18488 2.41163,-4.4632 3.33107,1.72168 18.02044,1.10694 18.02044,1.10694 -1.08939,25.06676 -6.06771,18.38966 -10.58629,19.52456 -7.53928,2.0409 -27.34904,-2.449 -26.87202,-8.3766 z"
           id="path7236"
           inkscape:connector-curvature="0"
           sodipodi:nodetypes="zsssccz"
           inkscape:transform-center-x="9.4879945"
           inkscape:transform-center-y="-1.4507414" />
        <path
           style="fill:#708b8d;fill-opacity:1;stroke:#e7f7fb;stroke-width:2;stroke-linecap:butt;stroke-linejoin:miter;stroke-opacity:1;stroke-miterlimit:4;stroke-dasharray:none"
           d="m 549.08189,1022.4572 c 0,0 14.02986,-0.551 20.40593,-3.137 8.08718,-3.28 21.32881,-15.1685 21.32881,-15.1685 l 7.15727,-4.76383 -5.1389,12.71683 c 0,0 -23.60444,12.8943 -32.90659,12.73 -3.46809,-0.062 -10.67491,-1.3252 -10.67491,-1.3252 z"
           id="path7238"
           inkscape:connector-curvature="0"
           sodipodi:nodetypes="cacccscc"
           inkscape:transform-center-x="-19.327097"
           inkscape:transform-center-y="-10.532671" />
        <path
           style="fill:#708b8d;fill-opacity:1;stroke:#e7f7fb;stroke-width:2;stroke-linecap:butt;stroke-linejoin:miter;stroke-opacity:1;stroke-miterlimit:4;stroke-dasharray:none"
           d="m 499.80375,999.56703 c 0,0 -11.9483,9.99877 -3.11477,18.15327 11.62227,10.7289 59.72506,9.1881 59.72506,9.1881 0,0 1.56001,-21.7669 -9.17376,-26.0148 -15.23976,-6.03119 -47.43653,-1.32657 -47.43653,-1.32657 z"
           id="path7240"
           inkscape:connector-curvature="0"
           sodipodi:nodetypes="cscsc" />
        <path
           inkscape:transform-center-y="6.3375257"
           inkscape:transform-center-x="-4.133558"
           style="fill:#708b8d;fill-opacity:1;stroke:#e7f7fb;stroke-width:2;stroke-linecap:butt;stroke-linejoin:miter;stroke-opacity:1;stroke-miterlimit:4;stroke-dasharray:none"
           d="m 541.35505,1014.0134 c 0,0 5.96938,11.2613 11.23667,18.3416 2.03612,2.737 6.68518,-1.5176 6.68518,-1.5176 0,0 -5.99738,-13.163 -12.87685,-16.6536 -1.6244,-0.8245 -5.045,-0.1704 -5.045,-0.1704 z"
           id="path7242"
           inkscape:connector-curvature="0"
           sodipodi:nodetypes="cscsc" />
        <path
           inkscape:transform-center-y="2.654583"
           inkscape:transform-center-x="-8.4454871"
           style="fill:#708b8d;fill-opacity:1;stroke:#e7f7fb;stroke-width:2;stroke-linecap:butt;stroke-linejoin:miter;stroke-opacity:1;stroke-miterlimit:4;stroke-dasharray:none"
           d="m 550.87382,1029.896 c 0.0837,-1.3328 -2.00594,-2.2556 3.81759,-1.6822 5.8236,0.5733 22.50988,13.0746 22.50988,13.0746 0,0 -6.64874,2.043 -8.90831,-0.4208 -8.79044,-9.5846 -17.73667,-5.9158 -17.41881,-10.9722 z"
           id="path7244"
           inkscape:connector-curvature="0"
           sodipodi:nodetypes="szcss" />
        <path
           style="fill:#708b8d;fill-opacity:1;stroke:#e7f7fb;stroke-width:2;stroke-linecap:butt;stroke-linejoin:miter;stroke-opacity:1;stroke-miterlimit:4;stroke-dasharray:none"
           d="m 515.73783,1021.4128 c 2.3479,6.1027 20.61587,14.1014 20.61587,14.1014 0,0 0.75976,-2.6317 -0.26097,-3.2915 -10.42501,-6.7392 -16.96128,-16.3359 -16.96128,-16.3359 0,0 -4.83178,1.7871 -3.39318,5.5263 z"
           id="path7246"
           inkscape:connector-curvature="0"
           sodipodi:nodetypes="ccscsc"
           inkscape:transform-center-x="-7.201129"
           inkscape:transform-center-y="5.0398154" />
        <path
           sodipodi:type="arc"
           style="fill:#708b8d;fill-opacity:1;fill-rule:nonzero;stroke:#e7f7fb;stroke-width:2.82146408000000015;stroke-linecap:round;stroke-linejoin:miter;stroke-miterlimit:4;stroke-opacity:1;stroke-dasharray:none"
           id="path7248"
           sodipodi:cx="55.558392"
           sodipodi:cy="21.46064"
           sodipodi:rx="14.142136"
           sodipodi:ry="15.404826"
           d="m 69.700527,21.46064 a 14.142136,15.404826 0 1 1 -28.284271,0 14.142136,15.404826 0 1 1 28.284271,0 z"
           transform="matrix(0.5794164,0.16716571,-0.27199074,0.78873053,474.90255,962.93429)"
           inkscape:transform-center-x="-9.2630476"
           inkscape:transform-center-y="-21.601634" />
      </g>
      <rect
         y="952.61072"
         x="461.24896"
         height="99.502487"
         width="149.50308"
         id="rect7250"
         style="fill:#bcc0d4;fill-opacity:0;fill-rule:nonzero;stroke:#d53126;stroke-width:0.49792784;stroke-linecap:round;stroke-linejoin:miter;stroke-miterlimit:4;stroke-opacity:1;stroke-dasharray:none" />
    </g>
    <g
       id="g7495">
      <g
         id="g7406">
        <path
           style="fill:#708b8d;fill-opacity:1;stroke:#e7f7fb;stroke-width:2;stroke-linecap:butt;stroke-linejoin:miter;stroke-opacity:1;stroke-miterlimit:4;stroke-dasharray:none"
           d="m -140.26462,1005.7989 c 0.47862,-5.9275 4.30762,-1.786 8.95114,-4.1632 5.22449,-2.67487 3.02176,-2.46375 8.13172,-3.62864 2.75726,-0.62854 -0.92251,-6.18483 2.41965,-4.46315 3.34215,1.72168 18.08037,1.10694 18.08037,1.10694 -1.09302,25.06675 -6.08789,18.38975 -10.6215,19.52455 -7.56435,2.0409 -27.43999,-2.449 -26.96138,-8.3765 z"
           id="path7282"
           inkscape:connector-curvature="0"
           sodipodi:nodetypes="zsssccz"
           inkscape:transform-center-x="9.4879945"
           inkscape:transform-center-y="-1.4507414" />
        <path
           style="fill:#708b8d;fill-opacity:1;stroke:#e7f7fb;stroke-width:2;stroke-linecap:butt;stroke-linejoin:miter;stroke-opacity:1;stroke-miterlimit:4;stroke-dasharray:none"
           d="m -66.625611,1030.538 c 0,0 14.076505,-0.5511 20.473785,-3.137 8.114073,-3.28 21.399734,-15.1685 21.399734,-15.1685 l 7.181072,-4.7639 -5.155988,12.7168 c 0,0 -23.682938,12.8944 -33.016024,12.73 -3.479613,-0.062 -10.710404,-1.3252 -10.710404,-1.3252 z"
           id="path7284"
           inkscape:connector-curvature="0"
           sodipodi:nodetypes="cacccscc"
           inkscape:transform-center-x="-19.327097"
           inkscape:transform-center-y="-10.532671" />
        <path
           inkscape:transform-center-y="-1.6687143"
           inkscape:transform-center-x="7.287636"
           style="fill:#708b8d;fill-opacity:1;stroke:#e7f7fb;stroke-width:2;stroke-linecap:butt;stroke-linejoin:miter;stroke-opacity:1;stroke-miterlimit:4;stroke-dasharray:none"
           d="m -105.6017,993.04669 c 0,0 -15.33936,2.89689 -11.56817,14.33481 4.96184,15.0487 47.868104,37.2009 47.868104,37.2009 0,0 11.964987,-18.2507 4.626384,-27.2045 -10.41931,-12.7126 -40.926318,-24.33121 -40.926318,-24.33121 z"
           id="path7286"
           inkscape:connector-curvature="0"
           sodipodi:nodetypes="cscsc" />
        <path
           inkscape:transform-center-y="6.6500795"
           inkscape:transform-center-x="1.3792612"
           style="fill:#708b8d;fill-opacity:1;stroke:#e7f7fb;stroke-width:2;stroke-linecap:butt;stroke-linejoin:miter;stroke-opacity:1;stroke-miterlimit:4;stroke-dasharray:none"
           d="m -70.875977,1019.6455 c 0,0 -3.396456,12.2878 -4.426827,21.0526 -0.398311,3.388 5.923939,3.4834 5.923939,3.4834 0,0 4.685267,-13.6904 2.067613,-20.9502 -0.617901,-1.7143 -3.564725,-3.5858 -3.564725,-3.5858 z"
           id="path7288"
           inkscape:connector-curvature="0"
           sodipodi:nodetypes="cscsc" />
        <path
           inkscape:transform-center-y="1.439001"
           inkscape:transform-center-x="8.4613404"
           style="fill:#708b8d;fill-opacity:1;stroke:#e7f7fb;stroke-width:2;stroke-linecap:butt;stroke-linejoin:miter;stroke-opacity:1;stroke-miterlimit:4;stroke-dasharray:none"
           d="m -68.195659,1041.7134 c 0.637041,1.1748 2.905765,0.8508 -2.355004,3.4489 -5.260758,2.5981 -26.104722,0.832 -26.104722,0.832 0,0 4.572708,-5.2543 7.804943,-4.3613 12.57437,3.474 18.238309,-4.3761 20.654783,0.081 z"
           id="path7290"
           inkscape:connector-curvature="0"
           sodipodi:nodetypes="szcss" />
        <path
           style="fill:#708b8d;fill-opacity:1;stroke:#e7f7fb;stroke-width:2;stroke-linecap:butt;stroke-linejoin:miter;stroke-opacity:1;stroke-miterlimit:4;stroke-dasharray:none"
           d="m -97.649988,1025.6172 c -6.171122,2.219 -14.579792,20.3148 -14.579792,20.3148 0,0 2.62389,0.8149 3.30718,-0.1916 6.97994,-10.2811 16.74427,-16.6143 16.74427,-16.6143 0,0 -1.690741,-4.8682 -5.471831,-3.5085 z"
           id="path7292"
           inkscape:connector-curvature="0"
           sodipodi:nodetypes="ccscsc"
           inkscape:transform-center-x="5.2256383"
           inkscape:transform-center-y="7.0692213" />
        <path
           sodipodi:type="arc"
           style="fill:#708b8d;fill-opacity:1;fill-rule:nonzero;stroke:#e7f7fb;stroke-width:2.81678446999999998;stroke-linecap:round;stroke-linejoin:miter;stroke-miterlimit:4;stroke-opacity:1;stroke-dasharray:none"
           id="path7294"
           sodipodi:cx="55.558392"
           sodipodi:cy="21.46064"
           sodipodi:rx="14.142136"
           sodipodi:ry="15.404826"
           d="m 69.700527,21.46064 a 14.142136,15.404826 0 1 1 -28.284271,0 14.142136,15.404826 0 1 1 28.284271,0 z"
           transform="matrix(0.5813432,0.16716571,-0.27289523,0.78873053,-139.62307,958.8722)"
           inkscape:transform-center-x="-9.2630476"
           inkscape:transform-center-y="-21.601634" />
      </g>
      <rect
         y="952.61029"
         x="-154.75063"
         height="99.502487"
         width="150.00024"
         id="rect7296"
         style="fill:#bcc0d4;fill-opacity:0;fill-rule:nonzero;stroke:#d53126;stroke-width:0.49875507;stroke-linecap:round;stroke-linejoin:miter;stroke-miterlimit:4;stroke-opacity:1;stroke-dasharray:none" />
    </g>
  </g>
</svg>
